<?xml version="1.0" encoding="UTF-8" standalone="no"?>
<!DOCTYPE svg PUBLIC "-//W3C//DTD SVG 1.1//EN" "http://www.w3.org/Graphics/SVG/1.1/DTD/svg11.dtd">
<svg width="100%" height="100%" viewBox="0 0 583 559" version="1.1" xmlns="http://www.w3.org/2000/svg" xmlns:xlink="http://www.w3.org/1999/xlink" xml:space="preserve" xmlns:serif="http://www.serif.com/" style="fill-rule:evenodd;clip-rule:evenodd;stroke-linejoin:round;stroke-miterlimit:2;">
    <g id="Mesa-de-trabajo1" serif:id="Mesa de trabajo1" transform="matrix(3.80185,0,0,4.93201,898.356,-147.96)">
        <rect x="-236.294" y="30" width="153.333" height="113.333" style="fill:none;"/>
        <g transform="matrix(0.26303,0,0,0.202757,-283.097,-15.6421)">
            <path d="M579.157,725.17C546.095,741.664 508.828,750.941 469.412,750.941C333.446,750.941 223.059,640.554 223.059,504.588C223.059,368.622 333.446,258.235 469.412,258.235C605.378,258.235 715.765,368.622 715.765,504.588C715.765,548.886 704.048,590.469 683.541,626.412L586.183,626.412C620.134,595.119 641.412,550.289 641.412,500.529C641.412,406.055 564.71,329.353 470.235,329.353C375.76,329.353 299.059,406.055 299.059,500.529C299.059,595.004 375.76,671.706 470.235,671.706C511.596,671.706 549.551,657.005 579.157,632.544L579.157,725.17Z" style="fill:white;"/>
            <g transform="matrix(0.976341,0,0,0.93888,7.79364,30.2473)">
                <circle cx="647.289" cy="694.583" r="36.083" style="fill:white;"/>
            </g>
            <path d="M463.389,617.641C436.606,615.686 412.283,604.835 393.373,588.024L393.373,410.31C397.279,406.836 401.415,403.616 405.757,400.675C401.415,403.615 397.278,406.835 393.373,410.31L393.373,381L459.649,381L460.036,380.959C464.032,380.543 468.095,380.333 472.206,380.333C537.792,380.333 591.039,433.581 591.039,499.167C591.039,564.753 537.792,618 472.206,618C469.36,618 466.536,617.9 463.749,617.667L463.389,617.641ZM481.145,561.81L481.237,561.822L460.706,561.822L460.706,545.982C461.961,548.027 463.298,549.906 464.706,551.603L464.706,551.6C463.297,549.903 461.961,548.025 460.706,545.982L460.706,451.018C461.845,449.162 463.052,447.441 464.319,445.87C463.052,447.441 461.845,449.162 460.706,451.018L460.706,435.356L480.041,435.356L480.154,435.334C481.32,435.112 482.505,435 483.705,435C502.838,435 518.373,463.453 518.373,498.5C518.373,533.547 502.838,562 483.705,562C482.874,562 482.05,561.946 481.237,561.822L481.132,561.808C475.096,561.002 469.488,557.357 464.706,551.6L464.706,551.603C469.489,557.365 475.097,561.01 481.132,561.808L481.145,561.81ZM463.749,617.667L393.373,617.667L393.373,588.024C412.289,604.849 436.611,615.709 463.389,617.641L463.434,617.644L463.749,617.667Z" style="fill:white;"/>
        </g>
    </g>
</svg>
